<svg width="132" height="129" viewBox="0 0 132 129" fill="none" xmlns="http://www.w3.org/2000/svg">
<path d="M72.4697 11.3135C70.7352 11.6479 69.126 12.1912 67.5795 12.9854C65.7404 13.9049 35.3959 31.4387 34.142 32.3164C30.9236 34.4898 28.4576 38.0844 27.3918 42.1387L26.9111 43.915V64.5V85.085L27.3918 86.8613C28.4576 90.9156 30.9236 94.5102 34.142 96.6836C35.3959 97.5613 65.7404 115.095 67.5795 116.015C72.6369 118.585 78.3631 118.585 83.4205 116.015C85.2596 115.095 115.604 97.5613 116.858 96.6836C120.076 94.5102 122.542 90.9156 123.608 86.8613L124.089 85.085V64.5V43.915L123.608 42.1387C122.542 38.0844 120.076 34.4898 116.858 32.3164C115.5 31.376 85.1342 13.8422 83.316 12.9227C79.8469 11.209 76.0643 10.6447 72.4697 11.3135Z" fill="#F47D27"/>
<path d="M53.4697 11.3135C51.7352 11.6479 50.126 12.1912 48.5795 12.9854C46.7404 13.9049 16.3959 31.4387 15.142 32.3164C11.9236 34.4898 9.45762 38.0844 8.3918 42.1387L7.91113 43.915V64.5V85.085L8.3918 86.8613C9.45762 90.9156 11.9236 94.5102 15.142 96.6836C16.3959 97.5613 46.7404 115.095 48.5795 116.015C53.6369 118.585 59.3631 118.585 64.4205 116.015C66.2596 115.095 96.6041 97.5613 97.858 96.6836C101.076 94.5102 103.542 90.9156 104.608 86.8613L105.089 85.085V64.5V43.915L104.608 42.1387C103.542 38.0844 101.076 34.4898 97.858 32.3164C96.4996 31.376 66.1342 13.8422 64.316 12.9227C60.8469 11.209 57.0643 10.6447 53.4697 11.3135ZM59.5303 19.9236C60.7215 20.3834 91.8393 38.2725 93.323 39.3592C94.4934 40.216 95.5801 41.6371 96.2488 43.1836L96.7295 44.333L96.7922 63.873C96.834 76.7256 96.7713 83.7475 96.625 84.4162C96.5205 84.9805 96.1652 85.9418 95.8727 86.5897C94.7441 88.9512 94.4934 89.1184 76.7506 99.3377C67.7434 104.541 59.9482 108.951 59.4258 109.139C58.0465 109.682 54.849 109.641 53.4697 109.097C52.2158 108.596 21.098 90.6648 19.677 89.6408C18.5275 88.8049 17.4826 87.4465 16.7721 85.8164L16.2705 84.667L16.2078 65.127C16.166 52.6924 16.2287 45.2316 16.3541 44.6047C16.7094 43.0164 17.6498 41.3027 18.7783 40.1742C19.6352 39.3174 23.1461 37.2066 36.2494 29.6414C45.2775 24.4586 53.0727 20.049 53.5951 19.9027C54.0967 19.7355 54.7027 19.5475 54.9326 19.4848C55.7686 19.2758 58.5062 19.5266 59.5303 19.9236Z" fill="black"/>
<path d="M32.9893 47.3842C30.6486 48.2619 29.541 50.8742 30.565 53.1313C30.8785 53.8209 32.1951 55.0539 37.1272 59.1918C40.5336 62.0549 43.3131 64.4373 43.3131 64.5C43.3131 64.5627 40.5336 66.9451 37.1272 69.8082C31.9025 74.2178 30.8994 75.1373 30.5441 75.9523C29.6664 77.9168 30.4815 80.3201 32.3623 81.3023C33.3863 81.8248 35.2045 81.8666 36.124 81.3859C36.4793 81.1979 40.4291 77.9377 44.9432 74.1133C53.7414 66.6734 53.9922 66.4018 53.9922 64.5C53.9922 62.5982 53.7414 62.3266 44.9432 54.8867C40.4291 51.0623 36.4793 47.8231 36.1658 47.6559C35.3717 47.2379 33.7625 47.1125 32.9893 47.3842Z" fill="black"/>
<path d="M58.2764 73.7789C56.3955 74.6148 55.3506 76.7674 55.873 78.7318C56.1865 79.9021 57.5449 81.3023 58.6943 81.6158C59.2586 81.7621 62.8322 81.8457 69.457 81.8457H79.3838L80.4705 81.3441C83.6053 79.8813 83.6053 75.3045 80.4287 73.8834C79.6555 73.5281 78.8404 73.4863 69.248 73.5072C61.0977 73.5072 58.7779 73.5699 58.2764 73.7789Z" fill="black"/>
</svg>
