<svg width="8" height="10" viewBox="0 0 8 10" fill="none" xmlns="http://www.w3.org/2000/svg">
<path fill-rule="evenodd" clip-rule="evenodd" d="M4.09064 5.25003C3.15159 5.25003 2.39192 4.50221 2.39192 3.57965C2.39192 2.65757 3.15159 1.90912 4.09064 1.90912C5.02937 1.90912 5.78969 2.65757 5.78969 3.57965C5.78969 4.50221 5.02937 5.25003 4.09064 5.25003ZM3.9943 0C2.01959 0 0.451065 1.63678 0.451065 3.65569C0.451065 6.40791 3.45207 9.25191 3.45207 9.25191C3.85582 9.62783 4.10662 9.65847 4.53589 9.25191C4.53589 9.25191 7.57021 6.40791 7.57021 3.65569C7.57021 1.63678 5.96886 0 3.9943 0Z" fill="#F3BF99"/>
</svg>
